<svg width="216" height="41" viewBox="0 0 216 41" fill="none" xmlns="http://www.w3.org/2000/svg">
<path d="M1 9.78044C6.43598 8.87443 12.3851 11.5924 13.9706 17.2549M30.7316 8.42143C20.9921 10.5625 16.9151 12.4984 13.9706 17.2549M30.7316 8.42143C27.3341 9.1683 25.9751 12.7249 25.9751 14.7634M30.7316 8.42143C27.3341 8.42143 24.3896 7.96842 22.8041 6.83594M13.9706 17.2549C16.0091 22.6909 14.4505 32.4107 11.4791 33.1099C7.62857 34.0158 9.89363 23.1439 13.9706 17.2549Z" stroke="#DEF751" stroke-width="2.85211"/>
<path d="M37.8995 12.7495V8.85136H56.267V12.7495H49.1975V33H44.969V12.7495H37.8995ZM66.5169 16.6146V20.3476H65.0303C62.1232 20.3476 60.3063 21.9002 60.3063 25.0716V33H56.276V16.7137H60.0751L60.3063 19.0922C61 17.4735 62.5527 16.3834 64.733 16.3834C65.2946 16.3834 65.8562 16.4494 66.5169 16.6146ZM72.7951 33.4295C69.3264 33.4295 67.2122 31.4143 67.2122 28.3421C67.2122 25.3359 69.3925 23.4529 73.2576 23.1555L78.1468 22.7922V22.4288C78.1468 20.2154 76.8254 19.3235 74.7772 19.3235C72.3987 19.3235 71.0773 20.3145 71.0773 22.0324H67.6416C67.6416 18.4976 70.5487 16.1851 74.9754 16.1851C79.3691 16.1851 82.078 18.5637 82.078 23.0895V33H78.5432L78.2459 30.5884C77.5522 32.2732 75.3388 33.4295 72.7951 33.4295ZM74.1165 30.3902C76.5941 30.3902 78.1798 28.9037 78.1798 26.393V25.5341L74.7772 25.7984C72.2665 26.0296 71.3085 26.8555 71.3085 28.1769C71.3085 29.6635 72.2996 30.3902 74.1165 30.3902ZM92.0827 33.4295C87.3587 33.4295 84.4185 29.9608 84.4185 24.9064C84.4185 19.819 87.3917 16.1851 92.3139 16.1851C94.5933 16.1851 96.6085 17.1432 97.6326 18.7619V8.42191H101.63V33H97.9299L97.6656 30.4563C96.6746 32.3393 94.5603 33.4295 92.0827 33.4295ZM92.9746 29.7295C95.7826 29.7295 97.5995 27.7144 97.5995 24.7743C97.5995 21.8341 95.7826 19.786 92.9746 19.786C90.1666 19.786 88.4488 21.8672 88.4488 24.7743C88.4488 27.6814 90.1666 29.7295 92.9746 29.7295ZM112.47 33.4295C107.614 33.4295 104.211 29.8947 104.211 24.8403C104.211 19.7199 107.548 16.1851 112.338 16.1851C117.227 16.1851 120.332 19.4556 120.332 24.543V25.7653L108.043 25.7984C108.341 28.6724 109.86 30.1259 112.536 30.1259C114.749 30.1259 116.203 29.267 116.665 27.7144H120.398C119.705 31.2822 116.731 33.4295 112.47 33.4295ZM112.371 19.4887C109.992 19.4887 108.539 20.777 108.142 23.2216H116.335C116.335 20.9752 114.782 19.4887 112.371 19.4887ZM122.897 40.565V16.6807H126.63L126.894 19.1583C127.885 17.2753 130.033 16.1851 132.51 16.1851C137.102 16.1851 140.141 19.5217 140.141 24.6421C140.141 29.7295 137.367 33.4295 132.51 33.4295C130.066 33.4295 127.952 32.4714 126.927 30.8197V40.565H122.897ZM126.96 24.8403C126.96 27.7805 128.777 29.7956 131.552 29.7956C134.393 29.7956 136.078 27.7474 136.078 24.8403C136.078 21.9333 134.393 19.852 131.552 19.852C128.777 19.852 126.96 21.9002 126.96 24.8403ZM147.546 33.4295C144.077 33.4295 141.963 31.4143 141.963 28.3421C141.963 25.3359 144.143 23.4529 148.008 23.1555L152.898 22.7922V22.4288C152.898 20.2154 151.576 19.3235 149.528 19.3235C147.15 19.3235 145.828 20.3145 145.828 22.0324H142.393C142.393 18.4976 145.3 16.1851 149.726 16.1851C154.12 16.1851 156.829 18.5637 156.829 23.0895V33H153.294L152.997 30.5884C152.303 32.2732 150.09 33.4295 147.546 33.4295ZM148.867 30.3902C151.345 30.3902 152.931 28.9037 152.931 26.393V25.5341L149.528 25.7984C147.017 26.0296 146.059 26.8555 146.059 28.1769C146.059 29.6635 147.05 30.3902 148.867 30.3902ZM166.834 33.4295C162.11 33.4295 159.169 29.9608 159.169 24.9064C159.169 19.819 162.143 16.1851 167.065 16.1851C169.344 16.1851 171.359 17.1432 172.383 18.7619V8.42191H176.381V33H172.681L172.416 30.4563C171.425 32.3393 169.311 33.4295 166.834 33.4295ZM167.726 29.7295C170.533 29.7295 172.35 27.7144 172.35 24.7743C172.35 21.8341 170.533 19.786 167.726 19.786C164.918 19.786 163.2 21.8672 163.2 24.7743C163.2 27.6814 164.918 29.7295 167.726 29.7295ZM186.626 33.4295C181.902 33.4295 178.962 29.9608 178.962 24.9064C178.962 19.819 181.935 16.1851 186.857 16.1851C189.137 16.1851 191.152 17.1432 192.176 18.7619V8.42191H196.173V33H192.473L192.209 30.4563C191.218 32.3393 189.104 33.4295 186.626 33.4295ZM187.518 29.7295C190.326 29.7295 192.143 27.7144 192.143 24.7743C192.143 21.8341 190.326 19.786 187.518 19.786C184.71 19.786 182.992 21.8672 182.992 24.7743C182.992 27.6814 184.71 29.7295 187.518 29.7295ZM198.292 40.565V37.1955H200.704C202.289 37.1955 203.281 36.8321 203.974 34.916L204.437 33.6937L197.863 16.6807H202.124L206.32 28.5733L210.746 16.6807H214.909L206.914 36.6339C205.692 39.6731 203.974 40.9284 201.298 40.9284C200.175 40.9284 199.184 40.7963 198.292 40.565Z" fill="#071112"/>
</svg>
